<svg width="1280" height="640" viewBox="0 0 1280 640" fill="none" xmlns="http://www.w3.org/2000/svg" role="img" aria-labelledby="title desc">
  <title id="title">Life Autobiography Writer</title>
  <desc id="desc">A refined GitHub header for an interview-driven autobiography writing skill, combining literary nonfiction, life interviews, scholar rocks, and quiet astrological structure.</desc>
  <defs>
    <radialGradient id="paperGlow" cx="0" cy="0" r="1" gradientUnits="userSpaceOnUse" gradientTransform="translate(760 312) rotate(90) scale(330 500)">
      <stop stop-color="#FFF7E6"/>
      <stop offset="0.45" stop-color="#F3E2C8"/>
      <stop offset="1" stop-color="#17120F"/>
    </radialGradient>
    <linearGradient id="inkWash" x1="90" y1="70" x2="1200" y2="610" gradientUnits="userSpaceOnUse">
      <stop stop-color="#241B17"/>
      <stop offset="0.52" stop-color="#090807"/>
      <stop offset="1" stop-color="#211611"/>
    </linearGradient>
    <linearGradient id="stoneShade" x1="786" y1="186" x2="986" y2="496" gradientUnits="userSpaceOnUse">
      <stop stop-color="#F8EFE0"/>
      <stop offset="0.44" stop-color="#C8B69E"/>
      <stop offset="1" stop-color="#5B5148"/>
    </linearGradient>
    <filter id="softShadow" x="-20%" y="-20%" width="140%" height="140%" color-interpolation-filters="sRGB">
      <feDropShadow dx="0" dy="20" stdDeviation="24" flood-color="#000000" flood-opacity="0.35"/>
    </filter>
    <filter id="mist" x="-20%" y="-20%" width="140%" height="140%" color-interpolation-filters="sRGB">
      <feGaussianBlur stdDeviation="18"/>
    </filter>
    <pattern id="grain" width="120" height="120" patternUnits="userSpaceOnUse">
      <circle cx="12" cy="19" r="1" fill="#FFFFFF" opacity="0.08"/>
      <circle cx="42" cy="71" r="0.9" fill="#FFFFFF" opacity="0.06"/>
      <circle cx="88" cy="31" r="0.8" fill="#FFFFFF" opacity="0.05"/>
      <circle cx="108" cy="96" r="1" fill="#000000" opacity="0.12"/>
    </pattern>
  </defs>

  <rect width="1280" height="640" fill="#0D0A09"/>
  <rect width="1280" height="640" fill="url(#inkWash)"/>
  <rect width="1280" height="640" fill="url(#grain)" opacity="0.42"/>

  <circle cx="858" cy="316" r="260" fill="url(#paperGlow)" opacity="0.72"/>
  <ellipse cx="735" cy="522" rx="520" ry="72" fill="#000000" opacity="0.36" filter="url(#mist)"/>

  <g opacity="0.62">
    <circle cx="896" cy="312" r="184" stroke="#D6B16C" stroke-width="1.2" opacity="0.65"/>
    <circle cx="896" cy="312" r="126" stroke="#D6B16C" stroke-width="0.9" opacity="0.45"/>
    <circle cx="896" cy="312" r="74" stroke="#D6B16C" stroke-width="0.8" opacity="0.4"/>
    <path d="M712 312H1080" stroke="#D6B16C" stroke-width="0.8" opacity="0.38"/>
    <path d="M896 128V496" stroke="#D6B16C" stroke-width="0.8" opacity="0.38"/>
    <path d="M765 181L1027 443" stroke="#D6B16C" stroke-width="0.8" opacity="0.32"/>
    <path d="M1027 181L765 443" stroke="#D6B16C" stroke-width="0.8" opacity="0.32"/>
    <path d="M796 455L994 169" stroke="#D6B16C" stroke-width="0.8" opacity="0.24"/>
    <path d="M795 170L996 456" stroke="#D6B16C" stroke-width="0.8" opacity="0.24"/>
    <circle cx="1007" cy="207" r="4" fill="#D6B16C"/>
    <circle cx="770" cy="391" r="3" fill="#D6B16C" opacity="0.78"/>
    <circle cx="1010" cy="407" r="2.6" fill="#D6B16C" opacity="0.68"/>
    <circle cx="834" cy="173" r="2.6" fill="#D6B16C" opacity="0.6"/>
  </g>

  <g filter="url(#softShadow)">
    <path d="M661 126C652 126 645 133 645 142V504C645 513 652 520 661 520H948C957 520 964 513 964 504V142C964 133 957 126 948 126H661Z" fill="#F8EBD7"/>
    <path d="M681 151H925" stroke="#2E2924" stroke-width="2" opacity="0.42"/>
    <path d="M681 190H910" stroke="#2E2924" stroke-width="2" opacity="0.25"/>
    <path d="M681 228H928" stroke="#2E2924" stroke-width="2" opacity="0.2"/>
    <path d="M681 266H884" stroke="#2E2924" stroke-width="2" opacity="0.18"/>
    <path d="M681 304H914" stroke="#2E2924" stroke-width="2" opacity="0.15"/>
    <path d="M681 342H878" stroke="#2E2924" stroke-width="2" opacity="0.13"/>
    <path d="M681 380H928" stroke="#2E2924" stroke-width="2" opacity="0.11"/>
    <path d="M681 418H892" stroke="#2E2924" stroke-width="2" opacity="0.1"/>
    <path d="M700 471C746 446 784 453 823 472C859 489 896 491 930 467" stroke="#9F2F26" stroke-width="4" stroke-linecap="round" opacity="0.84"/>
  </g>

  <g filter="url(#softShadow)">
    <path d="M876 179C915 161 954 171 972 201C986 225 981 255 960 276C998 282 1024 310 1024 348C1024 398 984 438 934 438H827C782 438 746 402 746 357C746 323 766 294 795 281C777 241 801 200 839 195C846 188 860 186 876 179Z" fill="url(#stoneShade)" stroke="#120F0D" stroke-width="3"/>
    <path d="M839 229C853 210 880 207 895 224C910 240 905 267 885 278C861 291 826 258 839 229Z" fill="#211D19" opacity="0.56"/>
    <path d="M906 309C924 290 955 295 965 320C975 346 950 371 923 360C899 351 891 325 906 309Z" fill="#1A1714" opacity="0.46"/>
    <path d="M816 341C832 327 858 332 866 352C875 375 852 398 828 388C806 379 799 357 816 341Z" fill="#171411" opacity="0.38"/>
    <path d="M806 426C833 410 868 408 899 423C927 437 956 436 985 416" stroke="#F3E4CC" stroke-width="3" stroke-linecap="round" opacity="0.56"/>
  </g>

  <g opacity="0.8">
    <path d="M998 118L1059 85" stroke="#B93C2D" stroke-width="5" stroke-linecap="round"/>
    <path d="M1012 117L1037 140" stroke="#B93C2D" stroke-width="5" stroke-linecap="round"/>
    <path d="M1059 85L1052 119" stroke="#B93C2D" stroke-width="5" stroke-linecap="round"/>
  </g>

  <g opacity="0.86">
    <rect x="1031" y="424" width="72" height="72" rx="4" fill="#A92E24"/>
    <text x="1067" y="455" fill="#F6E4CB" font-family="'Noto Serif SC', 'Songti SC', serif" font-size="21" font-weight="700" text-anchor="middle">不写</text>
    <text x="1067" y="481" fill="#F6E4CB" font-family="'Noto Serif SC', 'Songti SC', serif" font-size="21" font-weight="700" text-anchor="middle">彩虹</text>
  </g>

  <g>
    <text x="92" y="174" fill="#F8EBD7" font-family="Georgia, 'Times New Roman', serif" font-size="76" font-weight="700" letter-spacing="0">Life</text>
    <text x="92" y="252" fill="#F8EBD7" font-family="Georgia, 'Times New Roman', serif" font-size="76" font-weight="700" letter-spacing="0">Autobiography</text>
    <text x="92" y="330" fill="#F8EBD7" font-family="Georgia, 'Times New Roman', serif" font-size="76" font-weight="700" letter-spacing="0">Writer</text>
    <path d="M94 368H450" stroke="#B93C2D" stroke-width="5" stroke-linecap="round"/>
    <text x="92" y="415" fill="#DCC7A8" font-family="Inter, -apple-system, BlinkMacSystemFont, 'Segoe UI', sans-serif" font-size="24" font-weight="600" letter-spacing="1.6">INTERVIEW THE ORIGIN</text>
    <text x="92" y="451" fill="#DCC7A8" font-family="Inter, -apple-system, BlinkMacSystemFont, 'Segoe UI', sans-serif" font-size="24" font-weight="600" letter-spacing="1.6">WRITE THE WHOLE PERSON</text>
    <text x="92" y="504" fill="#F1E1C9" font-family="'Noto Serif SC', 'Songti SC', serif" font-size="34" font-weight="600">写一个人为什么成为自己</text>
    <text x="92" y="548" fill="#A9957C" font-family="Inter, -apple-system, BlinkMacSystemFont, 'Segoe UI', sans-serif" font-size="20">Chekhov compassion · E. B. White clarity · Munro undercurrent · McPhee structure</text>
  </g>

  <g opacity="0.42">
    <text x="1048" y="164" fill="#F8EBD7" font-family="Inter, -apple-system, BlinkMacSystemFont, 'Segoe UI', sans-serif" font-size="15" letter-spacing="2.4" transform="rotate(90 1048 164)">WHAT IS THE ORIGIN POINT?</text>
    <text x="600" y="566" fill="#F8EBD7" font-family="Inter, -apple-system, BlinkMacSystemFont, 'Segoe UI', sans-serif" font-size="14" letter-spacing="2">NO HAGIOGRAPHY · NO RESUME POLISH · NO FLATTERY</text>
  </g>
</svg>
